<?xml version="1.0" standalone="no"?>
<!DOCTYPE svg PUBLIC "-//W3C//DTD SVG 20010904//EN"
 "http://www.w3.org/TR/2001/REC-SVG-20010904/DTD/svg10.dtd">
<svg version="1.0" xmlns="http://www.w3.org/2000/svg"
 width="400.000000pt" height="400.000000pt" viewBox="0 0 400.000000 400.000000"
 preserveAspectRatio="xMidYMid meet">
<metadata>
Created by potrace 1.11, written by Peter Selinger 2001-2013
</metadata>
<g transform="translate(0.000000,400.000000) scale(0.100000,-0.100000)"
fill="#000000" stroke="none">
<path d="M1142 3461 c-58 -20 -90 -46 -132 -106 -61 -88 -57 -165 17 -365 161
-435 374 -717 648 -861 141 -73 243 -94 470 -93 124 0 183 5 265 22 302 62
608 209 906 433 120 91 134 105 165 169 16 33 22 63 22 110 -1 111 -55 195
-158 245 -89 42 -220 21 -296 -49 -86 -79 -319 -241 -416 -290 -60 -30 -149
-66 -177 -72 -10 -2 -33 -8 -50 -13 -79 -25 -276 -35 -368 -19 -112 21 -249
122 -335 248 -52 77 -129 230 -163 325 -18 50 -36 99 -41 110 -4 11 -13 38
-20 59 -16 55 -92 128 -154 149 -62 22 -117 21 -183 -2z"/>
<path d="M2068 3451 c-241 -95 -331 -368 -188 -575 78 -115 202 -174 343 -163
196 14 347 174 349 369 1 155 -78 286 -217 353 -50 25 -73 30 -149 32 -69 2
-102 -2 -138 -16z"/>
<path d="M1770 1875 c-203 -45 -379 -132 -605 -301 -132 -99 -185 -145 -330
-289 -222 -221 -309 -327 -331 -401 -37 -130 16 -251 139 -316 32 -17 59 -22
112 -22 107 0 145 23 269 162 432 485 791 710 1006 629 88 -33 191 -146 269
-297 29 -55 103 -248 120 -310 18 -67 69 -130 132 -165 175 -95 394 32 392
229 -1 91 -78 313 -171 496 -94 184 -229 350 -362 448 -74 54 -192 108 -281
130 -93 23 -269 26 -359 7z"/>
</g>
</svg>
